<mxfile host="app.diagrams.net" modified="2020-11-14T23:44:20.832Z" agent="5.0 (X11)" etag="4dEXpAyLooe36RH6c8eJ" version="13.9.8" type="github">
  <diagram id="IwxbAkl_QF22f_hAsmUa" name="Page-1">
    <mxGraphModel dx="3771" dy="1303" grid="1" gridSize="10" guides="1" tooltips="1" connect="1" arrows="1" fold="1" page="1" pageScale="1" pageWidth="827" pageHeight="1169" math="0" shadow="0">
      <root>
        <mxCell id="0" />
        <mxCell id="1" parent="0" />
        <mxCell id="pDHIlOoIZ7-gjcepys6I-13" value="Proveedor" style="rounded=1;arcSize=10;whiteSpace=wrap;html=1;align=center;" parent="1" vertex="1">
          <mxGeometry x="240" y="520" width="120" height="40" as="geometry" />
        </mxCell>
        <mxCell id="pDHIlOoIZ7-gjcepys6I-15" value="nombre" style="ellipse;whiteSpace=wrap;html=1;align=center;" parent="1" vertex="1">
          <mxGeometry x="240" y="400" width="120" height="40" as="geometry" />
        </mxCell>
        <mxCell id="pDHIlOoIZ7-gjcepys6I-18" value="idProveedor" style="ellipse;whiteSpace=wrap;html=1;align=center;fontStyle=4;" parent="1" vertex="1">
          <mxGeometry x="40" y="520" width="120" height="40" as="geometry" />
        </mxCell>
        <mxCell id="pDHIlOoIZ7-gjcepys6I-19" value="" style="endArrow=none;html=1;rounded=0;exitX=0;exitY=0.5;exitDx=0;exitDy=0;entryX=1;entryY=0.5;entryDx=0;entryDy=0;" parent="1" source="pDHIlOoIZ7-gjcepys6I-13" target="pDHIlOoIZ7-gjcepys6I-18" edge="1">
          <mxGeometry relative="1" as="geometry">
            <mxPoint x="210" y="480" as="sourcePoint" />
            <mxPoint x="210" y="560" as="targetPoint" />
          </mxGeometry>
        </mxCell>
        <mxCell id="pDHIlOoIZ7-gjcepys6I-20" value="" style="endArrow=none;html=1;rounded=0;exitX=0.5;exitY=0;exitDx=0;exitDy=0;entryX=0.5;entryY=1;entryDx=0;entryDy=0;" parent="1" source="pDHIlOoIZ7-gjcepys6I-13" target="pDHIlOoIZ7-gjcepys6I-15" edge="1">
          <mxGeometry relative="1" as="geometry">
            <mxPoint x="300" y="480" as="sourcePoint" />
            <mxPoint x="220" y="480" as="targetPoint" />
          </mxGeometry>
        </mxCell>
        <mxCell id="pDHIlOoIZ7-gjcepys6I-21" value="Envía" style="shape=rhombus;perimeter=rhombusPerimeter;whiteSpace=wrap;html=1;align=center;" parent="1" vertex="1">
          <mxGeometry x="720" y="520" width="120" height="40" as="geometry" />
        </mxCell>
        <mxCell id="pDHIlOoIZ7-gjcepys6I-22" value="N:N" style="text;strokeColor=none;fillColor=none;spacingLeft=4;spacingRight=4;overflow=hidden;rotatable=0;points=[[0,0.5],[1,0.5]];portConstraint=eastwest;fontSize=12;" parent="1" vertex="1">
          <mxGeometry x="760" y="490" width="40" height="30" as="geometry" />
        </mxCell>
        <mxCell id="pDHIlOoIZ7-gjcepys6I-23" value="" style="endArrow=none;html=1;rounded=0;exitX=1;exitY=0.5;exitDx=0;exitDy=0;entryX=0;entryY=0.5;entryDx=0;entryDy=0;" parent="1" source="pDHIlOoIZ7-gjcepys6I-13" target="pDHIlOoIZ7-gjcepys6I-21" edge="1">
          <mxGeometry relative="1" as="geometry">
            <mxPoint x="450" y="590" as="sourcePoint" />
            <mxPoint x="610" y="590" as="targetPoint" />
          </mxGeometry>
        </mxCell>
        <mxCell id="pDHIlOoIZ7-gjcepys6I-24" value="" style="endArrow=none;html=1;rounded=0;entryX=0;entryY=0.5;entryDx=0;entryDy=0;" parent="1" source="pDHIlOoIZ7-gjcepys6I-21" target="pDHIlOoIZ7-gjcepys6I-45" edge="1">
          <mxGeometry relative="1" as="geometry">
            <mxPoint x="759.9999999999998" y="539.41" as="sourcePoint" />
            <mxPoint x="1039.9999999999998" y="540" as="targetPoint" />
          </mxGeometry>
        </mxCell>
        <mxCell id="pDHIlOoIZ7-gjcepys6I-25" value="tipo" style="ellipse;whiteSpace=wrap;html=1;align=center;" parent="1" vertex="1">
          <mxGeometry x="520" y="460" width="120" height="40" as="geometry" />
        </mxCell>
        <mxCell id="pDHIlOoIZ7-gjcepys6I-27" value="" style="endArrow=none;html=1;rounded=0;exitX=1;exitY=0.5;exitDx=0;exitDy=0;" parent="1" source="pDHIlOoIZ7-gjcepys6I-25" edge="1">
          <mxGeometry relative="1" as="geometry">
            <mxPoint x="650" y="480" as="sourcePoint" />
            <mxPoint x="720" y="540" as="targetPoint" />
          </mxGeometry>
        </mxCell>
        <mxCell id="pDHIlOoIZ7-gjcepys6I-28" value="pesoGlobal" style="ellipse;whiteSpace=wrap;html=1;align=center;" parent="1" vertex="1">
          <mxGeometry x="920" y="440" width="120" height="40" as="geometry" />
        </mxCell>
        <mxCell id="pDHIlOoIZ7-gjcepys6I-29" value="" style="endArrow=none;html=1;rounded=0;exitX=0.002;exitY=0.542;exitDx=0;exitDy=0;entryX=1;entryY=0.5;entryDx=0;entryDy=0;exitPerimeter=0;" parent="1" source="pDHIlOoIZ7-gjcepys6I-28" target="pDHIlOoIZ7-gjcepys6I-21" edge="1">
          <mxGeometry relative="1" as="geometry">
            <mxPoint x="787" y="540" as="sourcePoint" />
            <mxPoint x="820" y="520" as="targetPoint" />
          </mxGeometry>
        </mxCell>
        <mxCell id="pDHIlOoIZ7-gjcepys6I-30" value="precioKilo" style="ellipse;whiteSpace=wrap;html=1;align=center;" parent="1" vertex="1">
          <mxGeometry x="520" y="600" width="120" height="40" as="geometry" />
        </mxCell>
        <mxCell id="pDHIlOoIZ7-gjcepys6I-31" value="precioKilo" style="ellipse;whiteSpace=wrap;html=1;align=center;" parent="1" vertex="1">
          <mxGeometry x="920" y="600" width="120" height="40" as="geometry" />
        </mxCell>
        <mxCell id="pDHIlOoIZ7-gjcepys6I-32" value="" style="endArrow=none;html=1;rounded=0;exitX=0.007;exitY=0.492;exitDx=0;exitDy=0;entryX=1;entryY=0.5;entryDx=0;entryDy=0;exitPerimeter=0;" parent="1" source="pDHIlOoIZ7-gjcepys6I-21" target="pDHIlOoIZ7-gjcepys6I-30" edge="1">
          <mxGeometry relative="1" as="geometry">
            <mxPoint x="670" y="580" as="sourcePoint" />
            <mxPoint x="790" y="660" as="targetPoint" />
          </mxGeometry>
        </mxCell>
        <mxCell id="pDHIlOoIZ7-gjcepys6I-33" value="" style="endArrow=none;html=1;rounded=0;exitX=1;exitY=0.5;exitDx=0;exitDy=0;entryX=0.001;entryY=0.512;entryDx=0;entryDy=0;entryPerimeter=0;" parent="1" source="pDHIlOoIZ7-gjcepys6I-21" target="pDHIlOoIZ7-gjcepys6I-31" edge="1">
          <mxGeometry relative="1" as="geometry">
            <mxPoint x="870" y="570" as="sourcePoint" />
            <mxPoint x="750" y="650" as="targetPoint" />
          </mxGeometry>
        </mxCell>
        <mxCell id="pDHIlOoIZ7-gjcepys6I-34" value="Pez" style="rounded=1;arcSize=10;whiteSpace=wrap;html=1;align=center;" parent="1" vertex="1">
          <mxGeometry x="1440" y="120" width="120" height="40" as="geometry" />
        </mxCell>
        <mxCell id="pDHIlOoIZ7-gjcepys6I-35" value="tamañoProm" style="ellipse;whiteSpace=wrap;html=1;align=center;" parent="1" vertex="1">
          <mxGeometry x="1600" y="40" width="120" height="40" as="geometry" />
        </mxCell>
        <mxCell id="pDHIlOoIZ7-gjcepys6I-36" value="nombre" style="ellipse;whiteSpace=wrap;html=1;align=center;" parent="1" vertex="1">
          <mxGeometry x="1280" y="200" width="120" height="40" as="geometry" />
        </mxCell>
        <mxCell id="pDHIlOoIZ7-gjcepys6I-37" value="tipo" style="ellipse;whiteSpace=wrap;html=1;align=center;" parent="1" vertex="1">
          <mxGeometry x="1280" y="40" width="120" height="40" as="geometry" />
        </mxCell>
        <mxCell id="pDHIlOoIZ7-gjcepys6I-38" value="color" style="ellipse;whiteSpace=wrap;html=1;align=center;" parent="1" vertex="1">
          <mxGeometry x="1440" width="120" height="40" as="geometry" />
        </mxCell>
        <mxCell id="pDHIlOoIZ7-gjcepys6I-39" value="idPez" style="ellipse;whiteSpace=wrap;html=1;align=center;fontStyle=4;" parent="1" vertex="1">
          <mxGeometry x="1600" y="200" width="120" height="40" as="geometry" />
        </mxCell>
        <mxCell id="pDHIlOoIZ7-gjcepys6I-40" value="" style="endArrow=none;html=1;rounded=0;exitX=0.5;exitY=1;exitDx=0;exitDy=0;entryX=0.5;entryY=0;entryDx=0;entryDy=0;" parent="1" source="pDHIlOoIZ7-gjcepys6I-38" target="pDHIlOoIZ7-gjcepys6I-34" edge="1">
          <mxGeometry relative="1" as="geometry">
            <mxPoint x="1250" y="300" as="sourcePoint" />
            <mxPoint x="1410" y="300" as="targetPoint" />
          </mxGeometry>
        </mxCell>
        <mxCell id="pDHIlOoIZ7-gjcepys6I-41" value="" style="endArrow=none;html=1;rounded=0;exitX=1;exitY=0.5;exitDx=0;exitDy=0;entryX=0.013;entryY=0.953;entryDx=0;entryDy=0;entryPerimeter=0;" parent="1" source="pDHIlOoIZ7-gjcepys6I-36" target="pDHIlOoIZ7-gjcepys6I-34" edge="1">
          <mxGeometry relative="1" as="geometry">
            <mxPoint x="1420" y="90" as="sourcePoint" />
            <mxPoint x="1420" y="170" as="targetPoint" />
          </mxGeometry>
        </mxCell>
        <mxCell id="pDHIlOoIZ7-gjcepys6I-42" value="" style="endArrow=none;html=1;rounded=0;entryX=0.988;entryY=0.96;entryDx=0;entryDy=0;exitX=0;exitY=0.5;exitDx=0;exitDy=0;entryPerimeter=0;" parent="1" source="pDHIlOoIZ7-gjcepys6I-39" target="pDHIlOoIZ7-gjcepys6I-34" edge="1">
          <mxGeometry relative="1" as="geometry">
            <mxPoint x="1630" y="160" as="sourcePoint" />
            <mxPoint x="1630" y="200" as="targetPoint" />
          </mxGeometry>
        </mxCell>
        <mxCell id="pDHIlOoIZ7-gjcepys6I-43" value="" style="endArrow=none;html=1;rounded=0;exitX=0;exitY=0.5;exitDx=0;exitDy=0;entryX=0.993;entryY=0.05;entryDx=0;entryDy=0;entryPerimeter=0;" parent="1" source="pDHIlOoIZ7-gjcepys6I-35" target="pDHIlOoIZ7-gjcepys6I-34" edge="1">
          <mxGeometry relative="1" as="geometry">
            <mxPoint x="1390" y="200" as="sourcePoint" />
            <mxPoint x="1460" y="180" as="targetPoint" />
          </mxGeometry>
        </mxCell>
        <mxCell id="pDHIlOoIZ7-gjcepys6I-44" value="" style="endArrow=none;html=1;rounded=0;exitX=1;exitY=0.5;exitDx=0;exitDy=0;entryX=0.01;entryY=0.042;entryDx=0;entryDy=0;entryPerimeter=0;" parent="1" source="pDHIlOoIZ7-gjcepys6I-37" target="pDHIlOoIZ7-gjcepys6I-34" edge="1">
          <mxGeometry relative="1" as="geometry">
            <mxPoint x="1440" y="240" as="sourcePoint" />
            <mxPoint x="1480" y="180" as="targetPoint" />
          </mxGeometry>
        </mxCell>
        <mxCell id="pDHIlOoIZ7-gjcepys6I-45" value="Cargamento" style="rounded=1;arcSize=10;whiteSpace=wrap;html=1;align=center;" parent="1" vertex="1">
          <mxGeometry x="1440" y="520" width="120" height="40" as="geometry" />
        </mxCell>
        <mxCell id="pDHIlOoIZ7-gjcepys6I-51" value="numLote" style="ellipse;whiteSpace=wrap;html=1;align=center;fontStyle=4;" parent="1" vertex="1">
          <mxGeometry x="1230" y="440" width="120" height="40" as="geometry" />
        </mxCell>
        <mxCell id="pDHIlOoIZ7-gjcepys6I-52" value="calidad" style="ellipse;whiteSpace=wrap;html=1;align=center;" parent="1" vertex="1">
          <mxGeometry x="1640" y="600" width="120" height="40" as="geometry" />
        </mxCell>
        <mxCell id="pDHIlOoIZ7-gjcepys6I-53" value="" style="endArrow=none;html=1;rounded=0;exitX=1;exitY=0.5;exitDx=0;exitDy=0;entryX=0;entryY=0.5;entryDx=0;entryDy=0;" parent="1" source="pDHIlOoIZ7-gjcepys6I-45" target="pDHIlOoIZ7-gjcepys6I-52" edge="1">
          <mxGeometry relative="1" as="geometry">
            <mxPoint x="1499.9999999999998" y="570" as="sourcePoint" />
            <mxPoint x="1619.9999999999998" y="650" as="targetPoint" />
          </mxGeometry>
        </mxCell>
        <mxCell id="pDHIlOoIZ7-gjcepys6I-54" value="" style="endArrow=none;html=1;rounded=0;entryX=0;entryY=0.5;entryDx=0;entryDy=0;exitX=1;exitY=0.5;exitDx=0;exitDy=0;" parent="1" source="pDHIlOoIZ7-gjcepys6I-51" target="pDHIlOoIZ7-gjcepys6I-45" edge="1">
          <mxGeometry relative="1" as="geometry">
            <mxPoint x="1499.41" y="440" as="sourcePoint" />
            <mxPoint x="1499.41" y="520" as="targetPoint" />
          </mxGeometry>
        </mxCell>
        <mxCell id="pDHIlOoIZ7-gjcepys6I-55" value="calidad" style="ellipse;whiteSpace=wrap;html=1;align=center;" parent="1" vertex="1">
          <mxGeometry x="1230" y="600" width="120" height="40" as="geometry" />
        </mxCell>
        <mxCell id="pDHIlOoIZ7-gjcepys6I-56" value="" style="endArrow=none;html=1;rounded=0;exitX=1;exitY=0.5;exitDx=0;exitDy=0;entryX=0;entryY=0.5;entryDx=0;entryDy=0;" parent="1" source="pDHIlOoIZ7-gjcepys6I-55" target="pDHIlOoIZ7-gjcepys6I-45" edge="1">
          <mxGeometry relative="1" as="geometry">
            <mxPoint x="1620" y="529.9999999999999" as="sourcePoint" />
            <mxPoint x="1570" y="520" as="targetPoint" />
          </mxGeometry>
        </mxCell>
        <mxCell id="pDHIlOoIZ7-gjcepys6I-57" value="estado" style="ellipse;whiteSpace=wrap;html=1;align=center;" parent="1" vertex="1">
          <mxGeometry x="1640" y="440" width="120" height="40" as="geometry" />
        </mxCell>
        <mxCell id="pDHIlOoIZ7-gjcepys6I-58" value="" style="endArrow=none;html=1;rounded=0;exitX=0;exitY=0.5;exitDx=0;exitDy=0;entryX=1;entryY=0.5;entryDx=0;entryDy=0;" parent="1" source="pDHIlOoIZ7-gjcepys6I-57" target="pDHIlOoIZ7-gjcepys6I-45" edge="1">
          <mxGeometry relative="1" as="geometry">
            <mxPoint x="1661.92" y="550" as="sourcePoint" />
            <mxPoint x="1560" y="591.1600000000001" as="targetPoint" />
          </mxGeometry>
        </mxCell>
        <mxCell id="s8OclJnJZNiFWNM1z5i_-1" value="Supervisado" style="shape=rhombus;perimeter=rhombusPerimeter;whiteSpace=wrap;html=1;align=center;" vertex="1" parent="1">
          <mxGeometry x="1440" y="720" width="120" height="40" as="geometry" />
        </mxCell>
        <mxCell id="s8OclJnJZNiFWNM1z5i_-2" value="" style="endArrow=none;html=1;rounded=0;entryX=0.5;entryY=1;entryDx=0;entryDy=0;" edge="1" parent="1" source="s8OclJnJZNiFWNM1z5i_-1" target="pDHIlOoIZ7-gjcepys6I-45">
          <mxGeometry relative="1" as="geometry">
            <mxPoint x="1501" y="760" as="sourcePoint" />
            <mxPoint x="1781" y="760" as="targetPoint" />
          </mxGeometry>
        </mxCell>
        <mxCell id="s8OclJnJZNiFWNM1z5i_-4" value="" style="endArrow=none;html=1;rounded=0;entryX=0.5;entryY=0;entryDx=0;entryDy=0;" edge="1" parent="1" source="s8OclJnJZNiFWNM1z5i_-1" target="s8OclJnJZNiFWNM1z5i_-5">
          <mxGeometry relative="1" as="geometry">
            <mxPoint x="1580" y="739.8" as="sourcePoint" />
            <mxPoint x="1860" y="739.8" as="targetPoint" />
          </mxGeometry>
        </mxCell>
        <mxCell id="s8OclJnJZNiFWNM1z5i_-5" value="Empleado" style="rounded=1;arcSize=10;whiteSpace=wrap;html=1;align=center;" vertex="1" parent="1">
          <mxGeometry x="1440" y="960" width="120" height="40" as="geometry" />
        </mxCell>
        <mxCell id="s8OclJnJZNiFWNM1z5i_-9" value="Contiene" style="shape=rhombus;perimeter=rhombusPerimeter;whiteSpace=wrap;html=1;align=center;" vertex="1" parent="1">
          <mxGeometry x="1439" y="320" width="120" height="40" as="geometry" />
        </mxCell>
        <mxCell id="s8OclJnJZNiFWNM1z5i_-11" value="idEmpleado" style="ellipse;whiteSpace=wrap;html=1;align=center;fontStyle=4;" vertex="1" parent="1">
          <mxGeometry x="1320" y="840" width="120" height="40" as="geometry" />
        </mxCell>
        <mxCell id="s8OclJnJZNiFWNM1z5i_-12" value="telefono" style="ellipse;whiteSpace=wrap;html=1;align=center;" vertex="1" parent="1">
          <mxGeometry x="1240" y="1000" width="120" height="40" as="geometry" />
        </mxCell>
        <mxCell id="s8OclJnJZNiFWNM1z5i_-13" value="calidad" style="ellipse;whiteSpace=wrap;html=1;align=center;" vertex="1" parent="1">
          <mxGeometry x="1560" y="840" width="120" height="40" as="geometry" />
        </mxCell>
        <mxCell id="s8OclJnJZNiFWNM1z5i_-14" value="nombre" style="ellipse;whiteSpace=wrap;html=1;align=center;" vertex="1" parent="1">
          <mxGeometry x="1240" y="920" width="120" height="40" as="geometry" />
        </mxCell>
        <mxCell id="s8OclJnJZNiFWNM1z5i_-15" value="direccion" style="ellipse;whiteSpace=wrap;html=1;align=center;" vertex="1" parent="1">
          <mxGeometry x="1320" y="1080" width="120" height="40" as="geometry" />
        </mxCell>
        <mxCell id="s8OclJnJZNiFWNM1z5i_-16" value="fechaContrato" style="ellipse;whiteSpace=wrap;html=1;align=center;" vertex="1" parent="1">
          <mxGeometry x="1640" y="1000" width="120" height="40" as="geometry" />
        </mxCell>
        <mxCell id="s8OclJnJZNiFWNM1z5i_-18" value="puesto" style="ellipse;whiteSpace=wrap;html=1;align=center;" vertex="1" parent="1">
          <mxGeometry x="1560" y="1080" width="120" height="40" as="geometry" />
        </mxCell>
        <mxCell id="s8OclJnJZNiFWNM1z5i_-19" value="fechaNacimiento" style="ellipse;whiteSpace=wrap;html=1;align=center;" vertex="1" parent="1">
          <mxGeometry x="1640" y="920" width="120" height="40" as="geometry" />
        </mxCell>
        <mxCell id="s8OclJnJZNiFWNM1z5i_-20" value="" style="endArrow=none;html=1;rounded=0;exitX=1;exitY=0.5;exitDx=0;exitDy=0;entryX=0;entryY=0.75;entryDx=0;entryDy=0;" edge="1" parent="1" source="s8OclJnJZNiFWNM1z5i_-12" target="s8OclJnJZNiFWNM1z5i_-5">
          <mxGeometry relative="1" as="geometry">
            <mxPoint x="1520" y="980" as="sourcePoint" />
            <mxPoint x="1442" y="999" as="targetPoint" />
          </mxGeometry>
        </mxCell>
        <mxCell id="s8OclJnJZNiFWNM1z5i_-21" value="" style="endArrow=none;html=1;rounded=0;exitX=1;exitY=0.5;exitDx=0;exitDy=0;entryX=0;entryY=0.25;entryDx=0;entryDy=0;" edge="1" parent="1" source="s8OclJnJZNiFWNM1z5i_-14" target="s8OclJnJZNiFWNM1z5i_-5">
          <mxGeometry relative="1" as="geometry">
            <mxPoint x="1379.94" y="986.6800000000001" as="sourcePoint" />
            <mxPoint x="1450" y="950" as="targetPoint" />
          </mxGeometry>
        </mxCell>
        <mxCell id="s8OclJnJZNiFWNM1z5i_-22" value="" style="endArrow=none;html=1;rounded=0;entryX=0.012;entryY=0.957;entryDx=0;entryDy=0;exitX=0.5;exitY=0;exitDx=0;exitDy=0;entryPerimeter=0;" edge="1" parent="1" source="s8OclJnJZNiFWNM1z5i_-15" target="s8OclJnJZNiFWNM1z5i_-5">
          <mxGeometry relative="1" as="geometry">
            <mxPoint x="1379" y="1080" as="sourcePoint" />
            <mxPoint x="1461.2" y="1059.12" as="targetPoint" />
          </mxGeometry>
        </mxCell>
        <mxCell id="s8OclJnJZNiFWNM1z5i_-23" value="" style="endArrow=none;html=1;rounded=0;exitX=0.5;exitY=1;exitDx=0;exitDy=0;entryX=0.004;entryY=0.052;entryDx=0;entryDy=0;entryPerimeter=0;" edge="1" parent="1" source="s8OclJnJZNiFWNM1z5i_-11" target="s8OclJnJZNiFWNM1z5i_-5">
          <mxGeometry relative="1" as="geometry">
            <mxPoint x="1420" y="900" as="sourcePoint" />
            <mxPoint x="1500" y="930" as="targetPoint" />
          </mxGeometry>
        </mxCell>
        <mxCell id="s8OclJnJZNiFWNM1z5i_-24" value="" style="endArrow=none;html=1;rounded=0;entryX=0.984;entryY=0.982;entryDx=0;entryDy=0;exitX=0.5;exitY=0;exitDx=0;exitDy=0;entryPerimeter=0;" edge="1" parent="1" source="s8OclJnJZNiFWNM1z5i_-18" target="s8OclJnJZNiFWNM1z5i_-5">
          <mxGeometry relative="1" as="geometry">
            <mxPoint x="1390.0000000000002" y="1090" as="sourcePoint" />
            <mxPoint x="1451.44" y="1008.2800000000002" as="targetPoint" />
          </mxGeometry>
        </mxCell>
        <mxCell id="s8OclJnJZNiFWNM1z5i_-25" value="" style="endArrow=none;html=1;rounded=0;entryX=0.5;entryY=1;entryDx=0;entryDy=0;exitX=0.988;exitY=0.039;exitDx=0;exitDy=0;exitPerimeter=0;" edge="1" parent="1" source="s8OclJnJZNiFWNM1z5i_-5" target="s8OclJnJZNiFWNM1z5i_-13">
          <mxGeometry relative="1" as="geometry">
            <mxPoint x="1549.2800000000002" y="980.8600000000001" as="sourcePoint" />
            <mxPoint x="1610.72" y="899.1400000000001" as="targetPoint" />
          </mxGeometry>
        </mxCell>
        <mxCell id="s8OclJnJZNiFWNM1z5i_-26" value="" style="endArrow=none;html=1;rounded=0;entryX=1;entryY=0.75;entryDx=0;entryDy=0;exitX=0;exitY=0.5;exitDx=0;exitDy=0;" edge="1" parent="1" source="s8OclJnJZNiFWNM1z5i_-16" target="s8OclJnJZNiFWNM1z5i_-5">
          <mxGeometry relative="1" as="geometry">
            <mxPoint x="1630" y="1070.7200000000003" as="sourcePoint" />
            <mxPoint x="1568.08" y="990" as="targetPoint" />
          </mxGeometry>
        </mxCell>
        <mxCell id="s8OclJnJZNiFWNM1z5i_-27" value="" style="endArrow=none;html=1;rounded=0;entryX=1;entryY=0.25;entryDx=0;entryDy=0;exitX=0;exitY=0.5;exitDx=0;exitDy=0;" edge="1" parent="1" source="s8OclJnJZNiFWNM1z5i_-19" target="s8OclJnJZNiFWNM1z5i_-5">
          <mxGeometry relative="1" as="geometry">
            <mxPoint x="1650" y="990" as="sourcePoint" />
            <mxPoint x="1570" y="960" as="targetPoint" />
          </mxGeometry>
        </mxCell>
        <mxCell id="s8OclJnJZNiFWNM1z5i_-28" value="N:1" style="text;strokeColor=none;fillColor=none;spacingLeft=4;spacingRight=4;overflow=hidden;rotatable=0;points=[[0,0.5],[1,0.5]];portConstraint=eastwest;fontSize=12;" vertex="1" parent="1">
          <mxGeometry x="1559" y="325" width="40" height="30" as="geometry" />
        </mxCell>
        <mxCell id="s8OclJnJZNiFWNM1z5i_-32" value="" style="endArrow=none;html=1;rounded=0;entryX=0.5;entryY=1;entryDx=0;entryDy=0;" edge="1" parent="1" source="pDHIlOoIZ7-gjcepys6I-45" target="s8OclJnJZNiFWNM1z5i_-9">
          <mxGeometry relative="1" as="geometry">
            <mxPoint x="1499.58" y="520" as="sourcePoint" />
            <mxPoint x="1499.58" y="360" as="targetPoint" />
          </mxGeometry>
        </mxCell>
        <mxCell id="s8OclJnJZNiFWNM1z5i_-33" value="" style="endArrow=none;html=1;rounded=0;entryX=0.487;entryY=1.023;entryDx=0;entryDy=0;exitX=0.502;exitY=0.011;exitDx=0;exitDy=0;exitPerimeter=0;entryPerimeter=0;" edge="1" parent="1" source="s8OclJnJZNiFWNM1z5i_-9" target="pDHIlOoIZ7-gjcepys6I-34">
          <mxGeometry relative="1" as="geometry">
            <mxPoint x="1499" y="319" as="sourcePoint" />
            <mxPoint x="1498.5599999999995" y="150" as="targetPoint" />
          </mxGeometry>
        </mxCell>
        <mxCell id="s8OclJnJZNiFWNM1z5i_-34" value="Se realiza" style="shape=rhombus;perimeter=rhombusPerimeter;whiteSpace=wrap;html=1;align=center;" vertex="1" parent="1">
          <mxGeometry x="1920" y="520" width="120" height="40" as="geometry" />
        </mxCell>
        <mxCell id="s8OclJnJZNiFWNM1z5i_-35" value="" style="endArrow=none;html=1;rounded=0;exitX=1;exitY=0.5;exitDx=0;exitDy=0;" edge="1" parent="1" source="pDHIlOoIZ7-gjcepys6I-45" target="s8OclJnJZNiFWNM1z5i_-34">
          <mxGeometry relative="1" as="geometry">
            <mxPoint x="1830" y="585" as="sourcePoint" />
            <mxPoint x="1830" y="784.9999999999998" as="targetPoint" />
          </mxGeometry>
        </mxCell>
        <mxCell id="s8OclJnJZNiFWNM1z5i_-36" value="" style="endArrow=none;html=1;rounded=0;exitX=0.995;exitY=0.497;exitDx=0;exitDy=0;exitPerimeter=0;entryX=-0.005;entryY=0.48;entryDx=0;entryDy=0;entryPerimeter=0;" edge="1" parent="1" source="s8OclJnJZNiFWNM1z5i_-34" target="s8OclJnJZNiFWNM1z5i_-37">
          <mxGeometry relative="1" as="geometry">
            <mxPoint x="2070" y="539.66" as="sourcePoint" />
            <mxPoint x="2430.0000000000005" y="539.66" as="targetPoint" />
          </mxGeometry>
        </mxCell>
        <mxCell id="s8OclJnJZNiFWNM1z5i_-37" value="Limpieza" style="rounded=1;arcSize=10;whiteSpace=wrap;html=1;align=center;" vertex="1" parent="1">
          <mxGeometry x="2361" y="520" width="120" height="40" as="geometry" />
        </mxCell>
        <mxCell id="s8OclJnJZNiFWNM1z5i_-40" value="idLimpieza" style="ellipse;whiteSpace=wrap;html=1;align=center;fontStyle=4;" vertex="1" parent="1">
          <mxGeometry x="2361" y="400" width="120" height="40" as="geometry" />
        </mxCell>
        <mxCell id="s8OclJnJZNiFWNM1z5i_-41" value="" style="endArrow=none;html=1;rounded=0;exitX=0.5;exitY=1;exitDx=0;exitDy=0;entryX=0.5;entryY=0;entryDx=0;entryDy=0;" edge="1" parent="1" source="s8OclJnJZNiFWNM1z5i_-40" target="s8OclJnJZNiFWNM1z5i_-37">
          <mxGeometry relative="1" as="geometry">
            <mxPoint x="2420" y="440" as="sourcePoint" />
            <mxPoint x="2340" y="520" as="targetPoint" />
          </mxGeometry>
        </mxCell>
        <mxCell id="s8OclJnJZNiFWNM1z5i_-42" value="horaInicio" style="ellipse;whiteSpace=wrap;html=1;align=center;" vertex="1" parent="1">
          <mxGeometry x="2200" y="440" width="120" height="40" as="geometry" />
        </mxCell>
        <mxCell id="s8OclJnJZNiFWNM1z5i_-43" value="" style="endArrow=none;html=1;rounded=0;exitX=1;exitY=0.5;exitDx=0;exitDy=0;entryX=0.5;entryY=0;entryDx=0;entryDy=0;" edge="1" parent="1" source="s8OclJnJZNiFWNM1z5i_-42" target="s8OclJnJZNiFWNM1z5i_-37">
          <mxGeometry relative="1" as="geometry">
            <mxPoint x="2431" y="450" as="sourcePoint" />
            <mxPoint x="2431" y="530" as="targetPoint" />
          </mxGeometry>
        </mxCell>
        <mxCell id="s8OclJnJZNiFWNM1z5i_-44" value="horaFinal" style="ellipse;whiteSpace=wrap;html=1;align=center;" vertex="1" parent="1">
          <mxGeometry x="2520" y="440" width="120" height="40" as="geometry" />
        </mxCell>
        <mxCell id="s8OclJnJZNiFWNM1z5i_-45" value="" style="endArrow=none;html=1;rounded=0;exitX=0;exitY=0.5;exitDx=0;exitDy=0;entryX=0.5;entryY=0;entryDx=0;entryDy=0;" edge="1" parent="1" source="s8OclJnJZNiFWNM1z5i_-44" target="s8OclJnJZNiFWNM1z5i_-37">
          <mxGeometry relative="1" as="geometry">
            <mxPoint x="2470" y="475" as="sourcePoint" />
            <mxPoint x="2571" y="535" as="targetPoint" />
          </mxGeometry>
        </mxCell>
        <mxCell id="s8OclJnJZNiFWNM1z5i_-46" value="numEmpleados" style="ellipse;whiteSpace=wrap;html=1;align=center;" vertex="1" parent="1">
          <mxGeometry x="2520" y="600" width="120" height="40" as="geometry" />
        </mxCell>
        <mxCell id="s8OclJnJZNiFWNM1z5i_-48" value="idSupervisor" style="ellipse;whiteSpace=wrap;html=1;align=center;" vertex="1" parent="1">
          <mxGeometry x="2200" y="600" width="120" height="40" as="geometry" />
        </mxCell>
        <mxCell id="s8OclJnJZNiFWNM1z5i_-51" value="Lotes" style="ellipse;shape=doubleEllipse;margin=3;whiteSpace=wrap;html=1;align=center;" vertex="1" parent="1">
          <mxGeometry x="2360" y="640" width="120" height="40" as="geometry" />
        </mxCell>
        <mxCell id="s8OclJnJZNiFWNM1z5i_-52" value="" style="endArrow=none;html=1;rounded=0;exitX=1;exitY=0.5;exitDx=0;exitDy=0;entryX=0.5;entryY=1;entryDx=0;entryDy=0;" edge="1" parent="1" source="s8OclJnJZNiFWNM1z5i_-48" target="s8OclJnJZNiFWNM1z5i_-37">
          <mxGeometry relative="1" as="geometry">
            <mxPoint x="2350" y="560" as="sourcePoint" />
            <mxPoint x="2451" y="620" as="targetPoint" />
          </mxGeometry>
        </mxCell>
        <mxCell id="s8OclJnJZNiFWNM1z5i_-53" value="" style="endArrow=none;html=1;rounded=0;exitX=0.5;exitY=0;exitDx=0;exitDy=0;entryX=0.5;entryY=1;entryDx=0;entryDy=0;" edge="1" parent="1" source="s8OclJnJZNiFWNM1z5i_-51" target="s8OclJnJZNiFWNM1z5i_-37">
          <mxGeometry relative="1" as="geometry">
            <mxPoint x="2330" y="630" as="sourcePoint" />
            <mxPoint x="2431" y="570" as="targetPoint" />
          </mxGeometry>
        </mxCell>
        <mxCell id="s8OclJnJZNiFWNM1z5i_-54" value="" style="endArrow=none;html=1;rounded=0;exitX=0;exitY=0.5;exitDx=0;exitDy=0;entryX=0.5;entryY=1;entryDx=0;entryDy=0;" edge="1" parent="1" source="s8OclJnJZNiFWNM1z5i_-46" target="s8OclJnJZNiFWNM1z5i_-37">
          <mxGeometry relative="1" as="geometry">
            <mxPoint x="2430" y="650" as="sourcePoint" />
            <mxPoint x="2431" y="570" as="targetPoint" />
          </mxGeometry>
        </mxCell>
        <mxCell id="s8OclJnJZNiFWNM1z5i_-55" value="Enlatado" style="rounded=1;arcSize=10;whiteSpace=wrap;html=1;align=center;" vertex="1" parent="1">
          <mxGeometry x="2961" y="520" width="120" height="40" as="geometry" />
        </mxCell>
        <mxCell id="s8OclJnJZNiFWNM1z5i_-56" value="idEnlatado" style="ellipse;whiteSpace=wrap;html=1;align=center;fontStyle=4;" vertex="1" parent="1">
          <mxGeometry x="2961" y="400" width="120" height="40" as="geometry" />
        </mxCell>
        <mxCell id="s8OclJnJZNiFWNM1z5i_-57" value="" style="endArrow=none;html=1;rounded=0;exitX=0.5;exitY=1;exitDx=0;exitDy=0;entryX=0.5;entryY=0;entryDx=0;entryDy=0;" edge="1" parent="1" source="s8OclJnJZNiFWNM1z5i_-56" target="s8OclJnJZNiFWNM1z5i_-55">
          <mxGeometry relative="1" as="geometry">
            <mxPoint x="3020" y="430" as="sourcePoint" />
            <mxPoint x="2940" y="510" as="targetPoint" />
          </mxGeometry>
        </mxCell>
        <mxCell id="s8OclJnJZNiFWNM1z5i_-60" value="tipoPescado" style="ellipse;whiteSpace=wrap;html=1;align=center;" vertex="1" parent="1">
          <mxGeometry x="3120" y="440" width="120" height="40" as="geometry" />
        </mxCell>
        <mxCell id="s8OclJnJZNiFWNM1z5i_-61" value="" style="endArrow=none;html=1;rounded=0;exitX=0;exitY=0.5;exitDx=0;exitDy=0;entryX=0.5;entryY=0;entryDx=0;entryDy=0;" edge="1" parent="1" source="s8OclJnJZNiFWNM1z5i_-60" target="s8OclJnJZNiFWNM1z5i_-55">
          <mxGeometry relative="1" as="geometry">
            <mxPoint x="3070" y="465" as="sourcePoint" />
            <mxPoint x="3171" y="525" as="targetPoint" />
          </mxGeometry>
        </mxCell>
        <mxCell id="s8OclJnJZNiFWNM1z5i_-62" value="cantidadLatas" style="ellipse;whiteSpace=wrap;html=1;align=center;" vertex="1" parent="1">
          <mxGeometry x="3120" y="600" width="120" height="40" as="geometry" />
        </mxCell>
        <mxCell id="s8OclJnJZNiFWNM1z5i_-63" value="peso" style="ellipse;whiteSpace=wrap;html=1;align=center;" vertex="1" parent="1">
          <mxGeometry x="2800" y="600" width="120" height="40" as="geometry" />
        </mxCell>
        <mxCell id="s8OclJnJZNiFWNM1z5i_-65" value="" style="endArrow=none;html=1;rounded=0;exitX=1;exitY=0.5;exitDx=0;exitDy=0;entryX=0.5;entryY=1;entryDx=0;entryDy=0;" edge="1" parent="1" source="s8OclJnJZNiFWNM1z5i_-63" target="s8OclJnJZNiFWNM1z5i_-55">
          <mxGeometry relative="1" as="geometry">
            <mxPoint x="2950" y="550" as="sourcePoint" />
            <mxPoint x="3051" y="610" as="targetPoint" />
          </mxGeometry>
        </mxCell>
        <mxCell id="s8OclJnJZNiFWNM1z5i_-67" value="" style="endArrow=none;html=1;rounded=0;exitX=0;exitY=0.5;exitDx=0;exitDy=0;entryX=0.5;entryY=1;entryDx=0;entryDy=0;" edge="1" parent="1" source="s8OclJnJZNiFWNM1z5i_-62" target="s8OclJnJZNiFWNM1z5i_-55">
          <mxGeometry relative="1" as="geometry">
            <mxPoint x="3030" y="640" as="sourcePoint" />
            <mxPoint x="3031" y="560" as="targetPoint" />
          </mxGeometry>
        </mxCell>
        <mxCell id="s8OclJnJZNiFWNM1z5i_-68" value="fecha" style="ellipse;whiteSpace=wrap;html=1;align=center;" vertex="1" parent="1">
          <mxGeometry x="2800" y="440" width="120" height="40" as="geometry" />
        </mxCell>
        <mxCell id="s8OclJnJZNiFWNM1z5i_-69" value="precio" style="ellipse;whiteSpace=wrap;html=1;align=center;" vertex="1" parent="1">
          <mxGeometry x="2961" y="640" width="120" height="40" as="geometry" />
        </mxCell>
        <mxCell id="s8OclJnJZNiFWNM1z5i_-70" value="" style="endArrow=none;html=1;rounded=0;exitX=0.5;exitY=0;exitDx=0;exitDy=0;entryX=1;entryY=0.5;entryDx=0;entryDy=0;" edge="1" parent="1" source="s8OclJnJZNiFWNM1z5i_-55" target="s8OclJnJZNiFWNM1z5i_-68">
          <mxGeometry relative="1" as="geometry">
            <mxPoint x="3019" y="510" as="sourcePoint" />
            <mxPoint x="2920" y="450" as="targetPoint" />
          </mxGeometry>
        </mxCell>
        <mxCell id="s8OclJnJZNiFWNM1z5i_-71" value="" style="endArrow=none;html=1;rounded=0;entryX=0.5;entryY=1;entryDx=0;entryDy=0;" edge="1" parent="1" source="s8OclJnJZNiFWNM1z5i_-69" target="s8OclJnJZNiFWNM1z5i_-55">
          <mxGeometry relative="1" as="geometry">
            <mxPoint x="3089" y="650" as="sourcePoint" />
            <mxPoint x="2990" y="590" as="targetPoint" />
          </mxGeometry>
        </mxCell>
        <mxCell id="s8OclJnJZNiFWNM1z5i_-72" value="descripcion" style="ellipse;whiteSpace=wrap;html=1;align=center;" vertex="1" parent="1">
          <mxGeometry x="3160" y="520" width="120" height="40" as="geometry" />
        </mxCell>
        <mxCell id="s8OclJnJZNiFWNM1z5i_-73" value="" style="endArrow=none;html=1;rounded=0;entryX=1;entryY=0.5;entryDx=0;entryDy=0;exitX=0;exitY=0.5;exitDx=0;exitDy=0;" edge="1" parent="1" source="s8OclJnJZNiFWNM1z5i_-72" target="s8OclJnJZNiFWNM1z5i_-55">
          <mxGeometry relative="1" as="geometry">
            <mxPoint x="3130" y="630" as="sourcePoint" />
            <mxPoint x="3130" y="550" as="targetPoint" />
          </mxGeometry>
        </mxCell>
        <mxCell id="s8OclJnJZNiFWNM1z5i_-74" value="Factura" style="rounded=1;arcSize=10;whiteSpace=wrap;html=1;align=center;" vertex="1" parent="1">
          <mxGeometry x="2691" y="810" width="120" height="40" as="geometry" />
        </mxCell>
        <mxCell id="s8OclJnJZNiFWNM1z5i_-75" value="idFactura" style="ellipse;whiteSpace=wrap;html=1;align=center;fontStyle=4;" vertex="1" parent="1">
          <mxGeometry x="2691" y="690" width="120" height="40" as="geometry" />
        </mxCell>
        <mxCell id="s8OclJnJZNiFWNM1z5i_-76" value="" style="endArrow=none;html=1;rounded=0;exitX=0.5;exitY=1;exitDx=0;exitDy=0;entryX=0.5;entryY=0;entryDx=0;entryDy=0;" edge="1" parent="1" source="s8OclJnJZNiFWNM1z5i_-75" target="s8OclJnJZNiFWNM1z5i_-74">
          <mxGeometry relative="1" as="geometry">
            <mxPoint x="2750" y="720" as="sourcePoint" />
            <mxPoint x="2670" y="800" as="targetPoint" />
          </mxGeometry>
        </mxCell>
        <mxCell id="s8OclJnJZNiFWNM1z5i_-77" value="lugarVenta" style="ellipse;whiteSpace=wrap;html=1;align=center;" vertex="1" parent="1">
          <mxGeometry x="2850" y="730" width="120" height="40" as="geometry" />
        </mxCell>
        <mxCell id="s8OclJnJZNiFWNM1z5i_-78" value="" style="endArrow=none;html=1;rounded=0;exitX=0;exitY=0.5;exitDx=0;exitDy=0;entryX=0.5;entryY=0;entryDx=0;entryDy=0;" edge="1" parent="1" source="s8OclJnJZNiFWNM1z5i_-77" target="s8OclJnJZNiFWNM1z5i_-74">
          <mxGeometry relative="1" as="geometry">
            <mxPoint x="2800" y="755" as="sourcePoint" />
            <mxPoint x="2901" y="815" as="targetPoint" />
          </mxGeometry>
        </mxCell>
        <mxCell id="s8OclJnJZNiFWNM1z5i_-79" value="cantidad" style="ellipse;whiteSpace=wrap;html=1;align=center;" vertex="1" parent="1">
          <mxGeometry x="2850" y="890" width="120" height="40" as="geometry" />
        </mxCell>
        <mxCell id="s8OclJnJZNiFWNM1z5i_-80" value="idEmpleado" style="ellipse;whiteSpace=wrap;html=1;align=center;" vertex="1" parent="1">
          <mxGeometry x="2530" y="890" width="120" height="40" as="geometry" />
        </mxCell>
        <mxCell id="s8OclJnJZNiFWNM1z5i_-81" value="" style="endArrow=none;html=1;rounded=0;exitX=1;exitY=0.5;exitDx=0;exitDy=0;entryX=0.5;entryY=1;entryDx=0;entryDy=0;" edge="1" parent="1" source="s8OclJnJZNiFWNM1z5i_-80" target="s8OclJnJZNiFWNM1z5i_-74">
          <mxGeometry relative="1" as="geometry">
            <mxPoint x="2680" y="840" as="sourcePoint" />
            <mxPoint x="2781" y="900" as="targetPoint" />
          </mxGeometry>
        </mxCell>
        <mxCell id="s8OclJnJZNiFWNM1z5i_-82" value="" style="endArrow=none;html=1;rounded=0;exitX=0;exitY=0.5;exitDx=0;exitDy=0;entryX=0.5;entryY=1;entryDx=0;entryDy=0;" edge="1" parent="1" source="s8OclJnJZNiFWNM1z5i_-79" target="s8OclJnJZNiFWNM1z5i_-74">
          <mxGeometry relative="1" as="geometry">
            <mxPoint x="2760" y="930" as="sourcePoint" />
            <mxPoint x="2761" y="850" as="targetPoint" />
          </mxGeometry>
        </mxCell>
        <mxCell id="s8OclJnJZNiFWNM1z5i_-83" value="fecha" style="ellipse;whiteSpace=wrap;html=1;align=center;" vertex="1" parent="1">
          <mxGeometry x="2530" y="730" width="120" height="40" as="geometry" />
        </mxCell>
        <mxCell id="s8OclJnJZNiFWNM1z5i_-84" value="precio" style="ellipse;whiteSpace=wrap;html=1;align=center;" vertex="1" parent="1">
          <mxGeometry x="2691" y="930" width="120" height="40" as="geometry" />
        </mxCell>
        <mxCell id="s8OclJnJZNiFWNM1z5i_-85" value="" style="endArrow=none;html=1;rounded=0;exitX=0.5;exitY=0;exitDx=0;exitDy=0;entryX=1;entryY=0.5;entryDx=0;entryDy=0;" edge="1" parent="1" source="s8OclJnJZNiFWNM1z5i_-74" target="s8OclJnJZNiFWNM1z5i_-83">
          <mxGeometry relative="1" as="geometry">
            <mxPoint x="2749" y="800" as="sourcePoint" />
            <mxPoint x="2650" y="740" as="targetPoint" />
          </mxGeometry>
        </mxCell>
        <mxCell id="s8OclJnJZNiFWNM1z5i_-86" value="" style="endArrow=none;html=1;rounded=0;entryX=0.5;entryY=1;entryDx=0;entryDy=0;" edge="1" parent="1" source="s8OclJnJZNiFWNM1z5i_-84" target="s8OclJnJZNiFWNM1z5i_-74">
          <mxGeometry relative="1" as="geometry">
            <mxPoint x="2819" y="940" as="sourcePoint" />
            <mxPoint x="2720" y="880" as="targetPoint" />
          </mxGeometry>
        </mxCell>
        <mxCell id="s8OclJnJZNiFWNM1z5i_-87" value="tipoProducto" style="ellipse;whiteSpace=wrap;html=1;align=center;" vertex="1" parent="1">
          <mxGeometry x="2890" y="810" width="120" height="40" as="geometry" />
        </mxCell>
        <mxCell id="s8OclJnJZNiFWNM1z5i_-88" value="" style="endArrow=none;html=1;rounded=0;entryX=1;entryY=0.5;entryDx=0;entryDy=0;exitX=0;exitY=0.5;exitDx=0;exitDy=0;" edge="1" parent="1" source="s8OclJnJZNiFWNM1z5i_-87" target="s8OclJnJZNiFWNM1z5i_-74">
          <mxGeometry relative="1" as="geometry">
            <mxPoint x="2860" y="920" as="sourcePoint" />
            <mxPoint x="2860" y="840" as="targetPoint" />
          </mxGeometry>
        </mxCell>
      </root>
    </mxGraphModel>
  </diagram>
</mxfile>
